{
	"asset":{
		"generator":"Khronos glTF Blender I/O v4.5.48",
		"version":"2.0"
	},
	"extensionsUsed":[
		"KHR_materials_specular",
		"KHR_materials_ior"
	],
	"scene":0,
	"scenes":[
		{
			"name":"Scene",
			"nodes":[
				30
			]
		}
	],
	"nodes":[
		{
			"name":"front_foot.R",
			"rotation":[
				0.19024081528186798,
				0.762146532535553,
				-0.5372799038887024,
				0.30703654885292053
			],
			"scale":[
				1,
				0.9999999403953552,
				0.9999999403953552
			],
			"translation":[
				1.221160061959381e-09,
				0.39574894309043884,
				4.190951585769653e-09
			]
		},
		{
			"children":[
				0
			],
			"name":"front_shin.R",
			"rotation":[
				-0.06405163556337357,
				-0.9173180460929871,
				0.253223180770874,
				0.30050477385520935
			],
			"scale":[
				0.9999999403953552,
				0.9999997019767761,
				0.9999999403953552
			],
			"translation":[
				2.4388910446759837e-08,
				0.3301219344139099,
				-1.862645149230957e-09
			]
		},
		{
			"children":[
				1
			],
			"name":"front_thigh.R",
			"rotation":[
				-0.2871995270252228,
				-0.40497052669525146,
				0.46304118633270264,
				0.7342398762702942
			],
			"translation":[
				-0.013435529544949532,
				0.22998251020908356,
				-0.03472945839166641
			]
		},
		{
			"children":[
				2
			],
			"name":"shoulder.R",
			"rotation":[
				-0.11421545594930649,
				0.12634220719337463,
				-0.6435095071792603,
				0.7462493181228638
			],
			"scale":[
				0.9999998807907104,
				0.9999998211860657,
				0.9999999403953552
			],
			"translation":[
				0.03579351305961609,
				0.01586281508207321,
				-0.013776681385934353
			]
		},
		{
			"name":"Head.001",
			"rotation":[
				0.06377139687538147,
				4.7376513379049356e-08,
				-1.8758471753699268e-07,
				0.9979645609855652
			],
			"scale":[
				1,
				0.9999998807907104,
				0.9999999403953552
			],
			"translation":[
				3.166821471722869e-08,
				0.2028859704732895,
				0.05916759371757507
			]
		},
		{
			"name":"front_foot.L",
			"rotation":[
				0.1902408003807068,
				-0.7621466517448425,
				0.5372799038887024,
				0.30703625082969666
			],
			"scale":[
				0.9999999403953552,
				1.0000001192092896,
				1
			],
			"translation":[
				-1.3675204968421895e-08,
				0.39574873447418213,
				-1.1175870895385742e-08
			]
		},
		{
			"children":[
				5
			],
			"name":"front_shin.L",
			"rotation":[
				-0.06405144929885864,
				0.9173178672790527,
				-0.2532232403755188,
				0.3005051016807556
			],
			"scale":[
				1,
				0.9999998211860657,
				1
			],
			"translation":[
				-1.5859885849067723e-08,
				0.33012211322784424,
				-1.0058283805847168e-07
			]
		},
		{
			"children":[
				6
			],
			"name":"front_thigh.L",
			"rotation":[
				-0.2871994972229004,
				0.404970645904541,
				-0.46304118633270264,
				0.7342398166656494
			],
			"scale":[
				1,
				1,
				0.9999999403953552
			],
			"translation":[
				0.01343552302569151,
				0.22998252511024475,
				-0.03472943231463432
			]
		},
		{
			"children":[
				7
			],
			"name":"shoulder.L",
			"rotation":[
				-0.11421547085046768,
				-0.1263420581817627,
				0.6435092091560364,
				0.7462495565414429
			],
			"scale":[
				0.9999998807907104,
				1,
				1
			],
			"translation":[
				-0.03579341992735863,
				0.0158628448843956,
				-0.013776560313999653
			]
		},
		{
			"children":[
				3,
				4,
				8
			],
			"name":"spine.004",
			"rotation":[
				-0.15346065163612366,
				-5.888354337457713e-08,
				-1.952769612678651e-10,
				0.9881547689437866
			],
			"scale":[
				1,
				0.9999998807907104,
				1
			],
			"translation":[
				1.9539925233402755e-14,
				0.16218091547489166,
				-1.0803343286625022e-07
			]
		},
		{
			"children":[
				9
			],
			"name":"spine.003",
			"rotation":[
				-0.13395369052886963,
				3.317047259088213e-08,
				-9.28478911532693e-08,
				0.9909875988960266
			],
			"scale":[
				1,
				1.0000001192092896,
				1
			],
			"translation":[
				-3.730349362740526e-14,
				0.15196557343006134,
				4.4703497792397684e-08
			]
		},
		{
			"children":[
				10
			],
			"name":"spine.002",
			"rotation":[
				-0.1278960108757019,
				2.7858117590540132e-08,
				7.297632720337788e-08,
				0.9917875528335571
			],
			"translation":[
				1.7053025658242404e-13,
				0.15129490196704865,
				-1.490108925139566e-08
			]
		},
		{
			"name":"foot.R.001",
			"rotation":[
				0.4278460144996643,
				-0.5339464545249939,
				0.40951985120773315,
				0.6034421324729919
			],
			"scale":[
				1.0000001192092896,
				0.9999998807907104,
				1
			],
			"translation":[
				-1.209183437822503e-07,
				0.16812117397785187,
				1.1292286217212677e-08
			]
		},
		{
			"children":[
				12
			],
			"name":"foot.R",
			"rotation":[
				-0.25693199038505554,
				-0.6657458543777466,
				0.29969510436058044,
				0.6332072019577026
			],
			"scale":[
				0.9999999403953552,
				1,
				1
			],
			"translation":[
				5.9154594111987535e-08,
				0.2658821642398834,
				-5.960464477539063e-08
			]
		},
		{
			"children":[
				13
			],
			"name":"shin.R",
			"rotation":[
				0.09100695699453354,
				0.7458135485649109,
				-0.5064771175384521,
				0.42303767800331116
			],
			"scale":[
				1,
				0.9999999403953552,
				0.9999999403953552
			],
			"translation":[
				-1.3790628372589708e-07,
				0.25133296847343445,
				6.705522537231445e-08
			]
		},
		{
			"children":[
				14
			],
			"name":"thigh.R",
			"rotation":[
				-0.7581408619880676,
				0.08234070986509323,
				-0.4117127060890198,
				0.49893397092819214
			],
			"scale":[
				0.9999998807907104,
				0.9999998807907104,
				0.9999998807907104
			],
			"translation":[
				0.11341991275548935,
				-0.010041706264019012,
				-0.036101046949625015
			]
		},
		{
			"name":"foot.L.001",
			"rotation":[
				0.42784643173217773,
				0.5339459776878357,
				-0.40952032804489136,
				0.6034419536590576
			],
			"scale":[
				0.9999998807907104,
				0.9999998807907104,
				0.9999999403953552
			],
			"translation":[
				8.004079177226231e-08,
				0.16812099516391754,
				1.9208528101444244e-08
			]
		},
		{
			"children":[
				16
			],
			"name":"foot.L",
			"rotation":[
				-0.25693124532699585,
				0.6657465696334839,
				-0.29969456791877747,
				0.6332069635391235
			],
			"scale":[
				1.0000001192092896,
				1.000000238418579,
				1.0000001192092896
			],
			"translation":[
				-5.184902107657763e-08,
				0.2658822238445282,
				3.934837877750397e-08
			]
		},
		{
			"children":[
				17
			],
			"name":"shin.L",
			"rotation":[
				0.09100678563117981,
				-0.74581378698349,
				0.506476879119873,
				0.4230375289916992
			],
			"scale":[
				1,
				0.9999997019767761,
				0.9999998211860657
			],
			"translation":[
				-1.8047902727857945e-08,
				0.251333087682724,
				2.2351741790771484e-08
			]
		},
		{
			"children":[
				18
			],
			"name":"thigh.L",
			"rotation":[
				-0.7581411004066467,
				-0.08234052360057831,
				0.41171231865882874,
				0.49893394112586975
			],
			"scale":[
				1,
				1,
				0.9999998211860657
			],
			"translation":[
				-0.11342013627290726,
				-0.010041452944278717,
				-0.03610127791762352
			]
		},
		{
			"name":"LegPT.R",
			"rotation":[
				-0.36796095967292786,
				0.27467426657676697,
				-0.11473380774259567,
				0.8809057474136353
			],
			"scale":[
				1,
				1,
				1.0000001192092896
			],
			"translation":[
				0.18529687821865082,
				-0.054287414997816086,
				-0.322770893573761
			]
		},
		{
			"name":"front_legPT.R",
			"rotation":[
				-0.3852364122867584,
				0.029518451541662216,
				-0.012330489233136177,
				0.9222632646560669
			],
			"scale":[
				0.9999998807907104,
				1,
				0.9999999403953552
			],
			"translation":[
				0.2525123059749603,
				0.4083048403263092,
				-0.6838390827178955
			]
		},
		{
			"name":"front_legIK.R",
			"rotation":[
				0.3125944435596466,
				-0.3626427948474884,
				-0.8681737780570984,
				0.13057281076908112
			],
			"scale":[
				0.9999999403953552,
				0.9999998807907104,
				0.9999998211860657
			],
			"translation":[
				0.2368628978729248,
				-0.005363725125789642,
				-0.8272585868835449
			]
		},
		{
			"name":"LegIK.R",
			"rotation":[
				0.6708338856697083,
				0.26465076208114624,
				0.6335792541503906,
				0.2802128195762634
			],
			"scale":[
				1,
				1,
				1.0000001192092896
			],
			"translation":[
				0.19703863561153412,
				-0.5176340937614441,
				-0.35413286089897156
			]
		},
		{
			"name":"LegPT.L",
			"rotation":[
				-0.36796119809150696,
				-0.27467450499534607,
				0.11473342031240463,
				0.8809056282043457
			],
			"scale":[
				0.9999999403953552,
				1,
				0.9999998807907104
			],
			"translation":[
				-0.18529704213142395,
				-0.05428725853562355,
				-0.32277101278305054
			]
		},
		{
			"name":"front_legPT.L",
			"rotation":[
				-0.38523629307746887,
				-0.02951868623495102,
				0.012329903431236744,
				0.9222633242607117
			],
			"translation":[
				-0.2525118589401245,
				0.4083050787448883,
				-0.6838393807411194
			]
		},
		{
			"name":"front_legIK.L",
			"rotation":[
				0.31259429454803467,
				0.3626428246498108,
				0.8681737184524536,
				0.13057342171669006
			],
			"scale":[
				0.9999999403953552,
				1,
				1.0000001192092896
			],
			"translation":[
				-0.23686271905899048,
				-0.005363579839468002,
				-0.827258825302124
			]
		},
		{
			"name":"LegIK.L",
			"rotation":[
				0.6708337664604187,
				-0.26465165615081787,
				-0.6335789561271667,
				0.280212938785553
			],
			"scale":[
				0.9999999403953552,
				0.9999998211860657,
				0.9999996423721313
			],
			"translation":[
				-0.19703905284404755,
				-0.5176339745521545,
				-0.3541329801082611
			]
		},
		{
			"children":[
				11,
				15,
				19,
				20,
				21,
				22,
				23,
				24,
				25,
				26,
				27
			],
			"name":"spine.001",
			"rotation":[
				-1.1813041567165783e-07,
				-0.9250153303146362,
				-0.37992969155311584,
				3.1289818025470595e-07
			],
			"translation":[
				-2.1647593939633225e-07,
				0.6598974466323853,
				-0.41962817311286926
			]
		},
		{
			"mesh":0,
			"name":"Bigsastylon",
			"skin":0
		},
		{
			"children":[
				29,
				28
			],
			"name":"042_Bigsastylon_Art"
		}
	],
	"materials":[
		{
			"doubleSided":true,
			"extensions":{
				"KHR_materials_specular":{
					"specularFactor":0
				},
				"KHR_materials_ior":{
					"ior":1.4500000476837158
				}
			},
			"name":"042_Bigsastylon",
			"pbrMetallicRoughness":{
				"baseColorTexture":{
					"index":0
				},
				"metallicFactor":0
			}
		}
	],
	"meshes":[
		{
			"name":"Bigsastylon",
			"primitives":[
				{
					"attributes":{
						"POSITION":0,
						"NORMAL":1,
						"TEXCOORD_0":2,
						"COLOR_0":3,
						"JOINTS_0":4,
						"WEIGHTS_0":5
					},
					"indices":6,
					"material":0
				}
			]
		}
	],
	"textures":[
		{
			"sampler":0,
			"source":0
		}
	],
	"images":[
		{
			"mimeType":"image/jpeg",
			"name":"042_Bigsastylon_Albedo",
			"uri":"042_Bigsastylon_Albedo.jpg"
		}
	],
	"skins":[
		{
			"inverseBindMatrices":7,
			"joints":[
				28,
				11,
				10,
				9,
				3,
				2,
				1,
				0,
				4,
				8,
				7,
				6,
				5,
				15,
				14,
				13,
				12,
				19,
				18,
				17,
				16,
				20,
				21,
				22,
				23,
				24,
				25,
				26,
				27
			],
			"name":"042_Bigsastylon_Art"
		}
	],
	"accessors":[
		{
			"bufferView":0,
			"componentType":5126,
			"count":1732,
			"max":[
				0.4119184613227844,
				1.2804945707321167,
				0.3839428722858429
			],
			"min":[
				-0.41191837191581726,
				0.00102460035122931,
				-0.6323460936546326
			],
			"type":"VEC3"
		},
		{
			"bufferView":1,
			"componentType":5126,
			"count":1732,
			"type":"VEC3"
		},
		{
			"bufferView":2,
			"componentType":5126,
			"count":1732,
			"type":"VEC2"
		},
		{
			"bufferView":3,
			"componentType":5126,
			"count":1732,
			"type":"VEC3"
		},
		{
			"bufferView":4,
			"componentType":5121,
			"count":1732,
			"type":"VEC4"
		},
		{
			"bufferView":5,
			"componentType":5126,
			"count":1732,
			"type":"VEC4"
		},
		{
			"bufferView":6,
			"componentType":5123,
			"count":2430,
			"type":"SCALAR"
		},
		{
			"bufferView":7,
			"componentType":5126,
			"count":29,
			"type":"MAT4"
		}
	],
	"bufferViews":[
		{
			"buffer":0,
			"byteLength":20784,
			"byteOffset":0,
			"target":34962
		},
		{
			"buffer":0,
			"byteLength":20784,
			"byteOffset":20784,
			"target":34962
		},
		{
			"buffer":0,
			"byteLength":13856,
			"byteOffset":41568,
			"target":34962
		},
		{
			"buffer":0,
			"byteLength":20784,
			"byteOffset":55424,
			"target":34962
		},
		{
			"buffer":0,
			"byteLength":6928,
			"byteOffset":76208,
			"target":34962
		},
		{
			"buffer":0,
			"byteLength":27712,
			"byteOffset":83136,
			"target":34962
		},
		{
			"buffer":0,
			"byteLength":4860,
			"byteOffset":110848,
			"target":34963
		},
		{
			"buffer":0,
			"byteLength":1856,
			"byteOffset":115708
		}
	],
	"samplers":[
		{
			"magFilter":9729,
			"minFilter":9987
		}
	],
	"buffers":[
		{
			"byteLength":117564,
			"uri":"tank_enemy.bin"
		}
	]
}
