{
	"asset":{
		"generator":"Khronos glTF Blender I/O v4.5.48",
		"version":"2.0"
	},
	"extensionsUsed":[
		"KHR_materials_specular",
		"KHR_materials_ior"
	],
	"scene":0,
	"scenes":[
		{
			"name":"Scene",
			"nodes":[
				22
			]
		}
	],
	"nodes":[
		{
			"name":"Head.001",
			"rotation":[
				-1.020397689899255e-06,
				-0.6657027006149292,
				-0.7462171316146851,
				9.231967510459071e-07
			],
			"scale":[
				1,
				0.999999463558197,
				0.9999998211860657
			],
			"translation":[
				5.711231665372907e-07,
				0.29235178232192993,
				0.20746640861034393
			]
		},
		{
			"children":[
				0
			],
			"name":"Spine.003",
			"rotation":[
				-0.018511949107050896,
				0.034843914210796356,
				0.0021303121466189623,
				0.9992190599441528
			],
			"scale":[
				1.0000001192092896,
				0.9999999403953552,
				0.9999998807907104
			],
			"translation":[
				9.84948345106318e-10,
				0.2720470130443573,
				8.866851697320044e-10
			]
		},
		{
			"children":[
				1
			],
			"name":"Spine.002",
			"rotation":[
				0.03038695454597473,
				-0.053094130009412766,
				-0.003881176235154271,
				0.9981195330619812
			],
			"scale":[
				1,
				0.9999998807907104,
				0.9999998807907104
			],
			"translation":[
				-3.8549574643553797e-10,
				0.21320578455924988,
				7.60337570682168e-10
			]
		},
		{
			"name":"LargeTentacle.004.L",
			"rotation":[
				0.00116265332326293,
				-0.9676579236984253,
				-0.24330221116542816,
				0.06664005666971207
			],
			"scale":[
				0.9999998807907104,
				1,
				0.9999999403953552
			],
			"translation":[
				-9.925773269969795e-08,
				0.16895535588264465,
				7.450580596923828e-09
			]
		},
		{
			"children":[
				3
			],
			"name":"LargeTentacle.003.L",
			"rotation":[
				0.2922287881374359,
				-0.025822298601269722,
				-0.016206951811909676,
				0.9558624029159546
			],
			"scale":[
				0.9999998211860657,
				1,
				0.9999999403953552
			],
			"translation":[
				1.033711782838509e-09,
				0.20008638501167297,
				-7.450580596923828e-09
			]
		},
		{
			"children":[
				4
			],
			"name":"LargeTentacle.002.L",
			"rotation":[
				0.4579489827156067,
				-0.01127257477492094,
				-0.046598080545663834,
				0.8876848220825195
			],
			"scale":[
				0.9999999403953552,
				1,
				0.9999999403953552
			],
			"translation":[
				6.911623273708756e-09,
				0.19990061223506927,
				1.862645149230957e-09
			]
		},
		{
			"children":[
				5
			],
			"name":"LargeTentacle.001.L",
			"rotation":[
				-0.18421338498592377,
				-0.5588316917419434,
				-0.7924120426177979,
				0.16079719364643097
			],
			"scale":[
				1,
				1.0000001192092896,
				1
			],
			"translation":[
				0.11932975798845291,
				0.0551290437579155,
				0.12236929684877396
			]
		},
		{
			"name":"ShortTentacle.003.L",
			"rotation":[
				0.23781423270702362,
				-0.07859107851982117,
				-0.0404842272400856,
				0.9672791361808777
			],
			"scale":[
				0.9999999403953552,
				1.0000001192092896,
				1
			],
			"translation":[
				-1.1634284646788728e-08,
				0.20949921011924744,
				2.2351741790771484e-08
			]
		},
		{
			"children":[
				7
			],
			"name":"ShortTentacle.002.L",
			"rotation":[
				0.5271713733673096,
				-0.0037332524079829454,
				-0.012122764252126217,
				0.8496643900871277
			],
			"scale":[
				0.9999999403953552,
				0.9999999403953552,
				1
			],
			"translation":[
				-1.6763806343078613e-08,
				0.22907862067222595,
				-1.30385160446167e-08
			]
		},
		{
			"children":[
				8
			],
			"name":"ShortTentacle.001.L",
			"rotation":[
				-0.6604040265083313,
				-0.28065451979637146,
				-0.4055146276950836,
				0.5662662982940674
			],
			"scale":[
				0.9999998211860657,
				1,
				0.9999999403953552
			],
			"translation":[
				0.12306445091962814,
				0.07509393990039825,
				-0.05027792230248451
			]
		},
		{
			"name":"MiddleTentacle.003",
			"rotation":[
				0.3935839831829071,
				0.037916962057352066,
				0.03624197840690613,
				0.9177910685539246
			],
			"scale":[
				1,
				1,
				0.9999999403953552
			],
			"translation":[
				1.512476810461294e-09,
				0.15124842524528503,
				2.9802322387695312e-08
			]
		},
		{
			"children":[
				10
			],
			"name":"MiddleTentacle.002",
			"rotation":[
				0.3620116710662842,
				3.31542544529384e-08,
				4.270421172236638e-08,
				0.9321735501289368
			],
			"scale":[
				1,
				1,
				1.0000001192092896
			],
			"translation":[
				-7.155669390357389e-10,
				0.18189707398414612,
				-3.3527612686157227e-08
			]
		},
		{
			"children":[
				11
			],
			"name":"MiddleTentacle.001",
			"rotation":[
				-0.7848631739616394,
				-0.009816247038543224,
				-0.015494809485971928,
				0.6193976402282715
			],
			"scale":[
				0.9999999403953552,
				0.9999998807907104,
				0.9999999403953552
			],
			"translation":[
				0.00474073551595211,
				0.08246416598558426,
				-0.12129880487918854
			]
		},
		{
			"name":"LargeTentacle.004.R",
			"rotation":[
				0.0011628466891124845,
				0.9676579833030701,
				0.24330194294452667,
				0.06663983315229416
			],
			"scale":[
				0.9999998807907104,
				0.9999997615814209,
				0.9999999403953552
			],
			"translation":[
				-1.6501388699907693e-08,
				0.16895566880702972,
				7.450580596923828e-09
			]
		},
		{
			"children":[
				13
			],
			"name":"LargeTentacle.003.R",
			"rotation":[
				0.2922288477420807,
				0.025822259485721588,
				0.016207005828619003,
				0.9558623433113098
			],
			"scale":[
				0.9999998807907104,
				0.9999999403953552,
				0.9999998211860657
			],
			"translation":[
				5.704583827537135e-08,
				0.20008637011051178,
				7.450580596923828e-09
			]
		},
		{
			"children":[
				14
			],
			"name":"LargeTentacle.002.R",
			"rotation":[
				0.45794904232025146,
				0.011272591538727283,
				0.04659789055585861,
				0.8876847624778748
			],
			"scale":[
				1,
				1.0000001192092896,
				0.9999999403953552
			],
			"translation":[
				-7.637823529194065e-08,
				0.19990067183971405,
				-1.30385160446167e-08
			]
		},
		{
			"children":[
				15
			],
			"name":"LargeTentacle.001.R",
			"rotation":[
				-0.2108832746744156,
				0.5532867908477783,
				0.784549355506897,
				0.18407690525054932
			],
			"scale":[
				0.9999999403953552,
				1,
				0.9999998807907104
			],
			"translation":[
				-0.1275143176317215,
				0.05606424808502197,
				0.11335764080286026
			]
		},
		{
			"name":"ShortTentacle.003.R",
			"rotation":[
				0.23781459033489227,
				0.07859073579311371,
				0.04048389941453934,
				0.9672790169715881
			],
			"scale":[
				1,
				1.0000001192092896,
				1
			],
			"translation":[
				2.4115237806654477e-08,
				0.20949915051460266,
				4.470348358154297e-08
			]
		},
		{
			"children":[
				17
			],
			"name":"ShortTentacle.002.R",
			"rotation":[
				0.5271713137626648,
				0.0037334556691348553,
				0.012123212218284607,
				0.8496643900871277
			],
			"scale":[
				0.9999999403953552,
				0.9999999403953552,
				0.9999998807907104
			],
			"translation":[
				-1.7759603565536963e-08,
				0.22907869517803192,
				2.2351741790771484e-08
			]
		},
		{
			"children":[
				18
			],
			"name":"ShortTentacle.001.R",
			"rotation":[
				-0.6736916303634644,
				0.2623068392276764,
				0.37900418043136597,
				0.5776596069335938
			],
			"scale":[
				0.9999999403953552,
				0.9999998807907104,
				0.9999998807907104
			],
			"translation":[
				-0.11849899590015411,
				0.0760091245174408,
				-0.05909678712487221
			]
		},
		{
			"children":[
				2,
				6,
				9,
				12,
				16,
				19
			],
			"name":"Spine.001",
			"rotation":[
				-0.0516708604991436,
				0.018317990005016327,
				0.0009479296859353781,
				0.9984957575798035
			],
			"scale":[
				1,
				0.9999998807907104,
				0.9999998807907104
			],
			"translation":[
				0,
				0.03475514426827431,
				-5.6623323807514225e-09
			]
		},
		{
			"mesh":0,
			"name":"Squaresquid",
			"skin":0
		},
		{
			"children":[
				21,
				20
			],
			"name":"002_Squaresquid_Art"
		}
	],
	"materials":[
		{
			"doubleSided":true,
			"extensions":{
				"KHR_materials_specular":{
					"specularFactor":0
				},
				"KHR_materials_ior":{
					"ior":1.4500000476837158
				}
			},
			"name":"002_Squaresquid",
			"pbrMetallicRoughness":{
				"baseColorTexture":{
					"index":0
				},
				"metallicFactor":0
			}
		}
	],
	"meshes":[
		{
			"name":"Squaresquid",
			"primitives":[
				{
					"attributes":{
						"POSITION":0,
						"NORMAL":1,
						"TEXCOORD_0":2,
						"JOINTS_0":3,
						"WEIGHTS_0":4
					},
					"indices":5,
					"material":0
				}
			]
		}
	],
	"textures":[
		{
			"sampler":0,
			"source":0
		}
	],
	"images":[
		{
			"mimeType":"image/png",
			"name":"002_Squaresquid_Albedo",
			"uri":"002_Squaresquid_Albedo.png"
		}
	],
	"skins":[
		{
			"inverseBindMatrices":6,
			"joints":[
				20,
				2,
				1,
				0,
				6,
				5,
				4,
				3,
				9,
				8,
				7,
				12,
				11,
				10,
				16,
				15,
				14,
				13,
				19,
				18,
				17
			],
			"name":"002_Squaresquid_Art"
		}
	],
	"accessors":[
		{
			"bufferView":0,
			"componentType":5126,
			"count":1114,
			"max":[
				0.4906403124332428,
				1.2781405448913574,
				0.5200991630554199
			],
			"min":[
				-0.4906403720378876,
				-0.00595428328961134,
				-0.5572518110275269
			],
			"type":"VEC3"
		},
		{
			"bufferView":1,
			"componentType":5126,
			"count":1114,
			"type":"VEC3"
		},
		{
			"bufferView":2,
			"componentType":5126,
			"count":1114,
			"type":"VEC2"
		},
		{
			"bufferView":3,
			"componentType":5121,
			"count":1114,
			"type":"VEC4"
		},
		{
			"bufferView":4,
			"componentType":5126,
			"count":1114,
			"type":"VEC4"
		},
		{
			"bufferView":5,
			"componentType":5123,
			"count":1458,
			"type":"SCALAR"
		},
		{
			"bufferView":6,
			"componentType":5126,
			"count":21,
			"type":"MAT4"
		}
	],
	"bufferViews":[
		{
			"buffer":0,
			"byteLength":13368,
			"byteOffset":0,
			"target":34962
		},
		{
			"buffer":0,
			"byteLength":13368,
			"byteOffset":13368,
			"target":34962
		},
		{
			"buffer":0,
			"byteLength":8912,
			"byteOffset":26736,
			"target":34962
		},
		{
			"buffer":0,
			"byteLength":4456,
			"byteOffset":35648,
			"target":34962
		},
		{
			"buffer":0,
			"byteLength":17824,
			"byteOffset":40104,
			"target":34962
		},
		{
			"buffer":0,
			"byteLength":2916,
			"byteOffset":57928,
			"target":34963
		},
		{
			"buffer":0,
			"byteLength":1344,
			"byteOffset":60844
		}
	],
	"samplers":[
		{
			"magFilter":9729,
			"minFilter":9987
		}
	],
	"buffers":[
		{
			"byteLength":62188,
			"uri":"weak_enemy.bin"
		}
	]
}
